<svg width="84" height="84" viewBox="0 0 84 84" fill="none" xmlns="http://www.w3.org/2000/svg">
<path d="M26.5448 50.568C23.6048 50.568 20.6648 49.896 18.1448 48.468L14.1968 46.2C12.8528 45.444 11.0888 45.024 9.1568 45.024C7.5608 45.024 6.2168 43.68 6.2168 42.084C6.2168 40.488 7.5608 39.144 9.1568 39.144C12.0128 39.144 14.7848 39.816 16.9688 41.076L21.0008 43.344C24.1088 45.108 28.8968 45.108 32.0048 43.344L35.6168 41.328C40.4888 38.64 47.3768 38.64 52.2488 41.328L55.2728 43.008C58.6328 44.856 63.5888 44.688 66.6968 42.756C68.7128 41.16 71.3168 39.984 74.1728 39.312C75.7688 38.976 77.3648 39.984 77.7008 41.58C78.0368 43.176 77.0288 44.772 75.4328 45.108C73.4168 45.528 71.6528 46.368 70.3088 47.46C70.2248 47.544 70.1408 47.544 70.0568 47.628C65.1848 50.904 57.7928 51.072 52.5008 48.216L49.4768 46.536C46.2848 44.772 41.6648 44.772 38.4728 46.536L34.8608 48.552C32.4248 49.812 29.4848 50.568 26.5448 50.568Z" fill="#2860B8"/>
<path d="M26.5448 63.504C23.6048 63.504 20.6648 62.832 18.1448 61.404L14.1128 59.136C12.7688 58.38 11.0048 57.96 9.07281 57.96C7.47681 57.96 6.13281 56.616 6.13281 55.02C6.13281 53.424 7.47681 52.08 9.07281 52.08C11.9288 52.08 14.7008 52.752 16.8848 54.012L20.9168 56.28C24.0248 58.044 28.8128 58.044 31.9208 56.28L35.5328 54.264C40.4048 51.576 47.2928 51.576 52.1648 54.264L55.1888 55.944C58.5488 57.792 63.5048 57.624 66.6128 55.692C68.6288 54.096 71.2328 52.92 74.0888 52.248C75.6848 51.912 77.2808 52.92 77.6168 54.516C77.9528 56.112 76.9448 57.708 75.3488 58.044C73.3328 58.464 71.5688 59.304 70.2248 60.396C70.1408 60.48 70.0568 60.48 69.9728 60.564C65.1008 63.84 57.7088 64.008 52.4168 61.152L49.3928 59.472C46.2008 57.708 41.5808 57.708 38.3888 59.472L34.7768 61.488C32.4248 62.832 29.4848 63.504 26.5448 63.504Z" fill="#2860B8"/>
<path d="M26.5448 76.44C23.6048 76.44 20.6648 75.768 18.1448 74.34L14.1128 72.072C12.7688 71.316 11.0048 70.896 9.07281 70.896C7.47681 70.896 6.13281 69.552 6.13281 67.956C6.13281 66.36 7.47681 65.016 9.07281 65.016C11.9288 65.016 14.7008 65.688 16.8848 66.948L20.9168 69.216C24.0248 70.98 28.8128 70.98 31.9208 69.216L35.5328 67.2C40.4048 64.512 47.2928 64.512 52.1648 67.2L55.1888 68.88C58.5488 70.728 63.5048 70.56 66.6128 68.628C68.6288 67.032 71.2328 65.856 74.0888 65.184C75.6848 64.848 77.2808 65.856 77.6168 67.452C77.9528 69.048 76.9448 70.644 75.3488 70.98C73.3328 71.4 71.5688 72.24 70.2248 73.332C70.1408 73.416 70.0568 73.416 69.9728 73.5C65.1008 76.776 57.7088 76.944 52.4168 74.088L49.3928 72.408C46.2008 70.644 41.5808 70.644 38.3888 72.408L34.7768 74.424C32.4248 75.768 29.4848 76.44 26.5448 76.44Z" fill="#2860B8"/>
</svg>
