<svg width="84" height="84" viewBox="0 0 84 84" fill="none" xmlns="http://www.w3.org/2000/svg">
<path d="M59.556 49.98C55.272 49.98 50.988 48.468 47.964 44.772C45.192 41.412 44.1 38.472 43.68 32.76C43.176 27.132 46.452 21.756 49.896 19.74C54.012 17.388 57.036 17.892 58.8 18.732C59.724 19.152 60.48 19.824 61.152 20.496C61.32 19.656 61.404 18.816 61.236 17.892C60.984 15.792 59.64 14.196 57.204 13.104C50.316 9.99599 41.748 14.028 37.464 19.74C36.204 21.42 34.524 24.528 32.844 27.888C29.652 33.936 26.376 40.236 22.764 42.84C17.892 46.368 10.92 45.948 10.164 45.864C8.56799 45.696 7.30799 44.352 7.47599 42.672C7.64399 41.076 8.98799 39.816 10.668 39.984C12.18 40.068 16.716 39.984 19.32 38.052C21.756 36.288 25.032 30.072 27.636 25.116C29.484 21.588 31.248 18.228 32.844 16.212C38.472 8.73599 49.812 3.27599 59.724 7.81199C65.184 10.248 66.78 14.28 67.2 17.22C67.872 21.924 65.52 26.964 63 29.148C62.16 29.82 61.068 29.988 60.06 29.652C59.052 29.316 58.38 28.392 58.212 27.384C58.044 26.544 57.456 24.696 56.364 24.192C55.44 23.772 53.844 24.528 52.92 25.032C51.324 25.956 49.392 29.148 49.644 32.424C50.064 37.296 50.736 38.892 52.584 41.16C54.6 43.596 59.976 46.032 66.276 42.504C70.056 40.404 74.172 39.648 75.768 39.48C77.364 39.228 78.876 40.404 79.044 42C79.296 43.596 78.12 45.108 76.524 45.276C75.516 45.444 72.072 45.948 69.132 47.628C66.276 49.056 62.916 49.98 59.556 49.98Z" fill="#2860B8"/>
<path d="M26.5448 63.504C23.6048 63.504 20.6648 62.832 18.1448 61.404L14.1128 59.136C12.7688 58.38 11.0048 57.96 9.07281 57.96C7.47681 57.96 6.13281 56.616 6.13281 55.02C6.13281 53.424 7.47681 52.08 9.07281 52.08C11.9288 52.08 14.7008 52.752 16.8848 54.012L20.9168 56.28C24.0248 58.044 28.8128 58.044 31.9208 56.28L35.5328 54.264C40.4048 51.576 47.2928 51.576 52.1648 54.264L55.1888 55.944C58.5488 57.792 63.5048 57.624 66.6128 55.692C68.6288 54.096 71.2328 52.92 74.0888 52.248C75.6848 51.912 77.2808 52.92 77.6168 54.516C77.9528 56.112 76.9448 57.708 75.3488 58.044C73.3328 58.464 71.5688 59.304 70.2248 60.396C70.1408 60.48 70.0568 60.48 69.9728 60.564C65.1008 63.84 57.7088 64.008 52.4168 61.152L49.3928 59.472C46.2008 57.708 41.5808 57.708 38.3888 59.472L34.7768 61.488C32.4248 62.832 29.4848 63.504 26.5448 63.504Z" fill="#2860B8"/>
<path d="M26.5448 76.44C23.6048 76.44 20.6648 75.768 18.1448 74.34L14.1128 72.072C12.7688 71.316 11.0048 70.896 9.07281 70.896C7.47681 70.896 6.13281 69.552 6.13281 67.956C6.13281 66.36 7.47681 65.016 9.07281 65.016C11.9288 65.016 14.7008 65.688 16.8848 66.948L20.9168 69.216C24.0248 70.98 28.8128 70.98 31.9208 69.216L35.5328 67.2C40.4048 64.512 47.2928 64.512 52.1648 67.2L55.1888 68.88C58.5488 70.728 63.5048 70.56 66.6128 68.628C68.6288 67.032 71.2328 65.856 74.0888 65.184C75.6848 64.848 77.2808 65.856 77.6168 67.452C77.9528 69.048 76.9448 70.644 75.3488 70.98C73.3328 71.4 71.5688 72.24 70.2248 73.332C70.1408 73.416 70.0568 73.416 69.9728 73.5C65.1008 76.776 57.7088 76.944 52.4168 74.088L49.3928 72.408C46.2008 70.644 41.5808 70.644 38.3888 72.408L34.7768 74.424C32.4248 75.768 29.4848 76.44 26.5448 76.44Z" fill="#2860B8"/>
</svg>
