<svg width="84" height="84" viewBox="0 0 84 84" fill="none" xmlns="http://www.w3.org/2000/svg">
<path d="M66.3605 47.796C63.3365 47.796 60.7325 46.536 59.2205 44.688C57.5405 42.672 56.9525 40.992 56.6165 37.632C56.3645 34.272 58.2965 30.996 60.3965 29.82C62.9165 28.392 64.8485 28.728 65.9405 29.232C66.3605 29.4 66.6965 29.652 67.0325 29.988C67.0325 29.82 67.0325 29.568 67.0325 29.4C66.9485 28.392 66.2765 27.468 64.9325 26.712C61.3205 24.696 57.0365 26.124 54.2645 30.24C53.7605 31.08 53.1725 32.088 52.5005 33.264C51.2405 35.448 49.7285 38.22 47.5445 41.244C46.7885 42.336 44.6885 45.108 41.4965 46.2C36.9605 47.712 33.1805 45.612 31.0805 43.176C29.4005 41.16 28.8125 39.48 28.4765 36.12C28.2245 32.76 30.1565 29.484 32.2565 28.308C34.7765 26.88 36.7085 27.216 37.8005 27.72C38.1365 27.888 38.4725 28.056 38.7245 28.308C38.7245 28.224 38.7245 28.14 38.7245 28.056C38.6405 26.964 37.8845 25.956 36.4565 25.116C33.1805 23.268 28.1405 25.536 25.6205 28.896C24.8645 29.82 23.9405 31.584 22.9325 33.516C21.0845 37.044 19.1525 40.656 16.9685 42.252C14.0285 44.352 9.82849 44.1 9.40849 44.1C8.23249 44.016 7.39249 43.008 7.47649 41.832C7.56049 40.656 8.56849 39.816 9.74449 39.9C10.5845 39.984 13.1045 39.9 14.5325 38.892C15.8765 37.884 17.8085 34.272 19.2365 31.584C20.3285 29.568 21.3365 27.636 22.2605 26.376C25.9565 21.588 33.0125 18.396 38.4725 21.504C41.8325 23.436 42.7565 25.956 42.9245 27.72C43.1765 30.576 41.7485 33.18 40.2365 34.356C39.6485 34.86 38.8925 34.944 38.1365 34.692C37.4645 34.44 36.9605 33.768 36.7925 33.096C36.7085 32.592 36.3725 31.752 35.9525 31.584C35.7005 31.5 35.1965 31.584 34.3565 32.004C33.6005 32.424 32.5085 34.188 32.6765 35.868C32.9285 38.556 33.2645 39.396 34.2725 40.656C35.4485 42.084 37.6325 43.26 40.1525 42.42C42.0845 41.748 43.5965 39.732 44.1845 38.976C46.2005 36.204 47.7125 33.6 48.8885 31.5C49.6445 30.24 50.2325 29.148 50.8205 28.14C54.8525 22.176 61.4885 20.16 67.0325 23.268C70.3085 25.116 71.1485 27.552 71.3165 29.232C71.5685 32.256 69.7205 35.028 68.3765 36.036C67.7885 36.54 67.0325 36.624 66.2765 36.372C65.6045 36.12 65.1005 35.448 64.9325 34.776C64.8485 34.272 64.5125 33.432 64.0925 33.264C63.8405 33.18 63.3365 33.264 62.4965 33.684C61.7405 34.104 60.6485 35.868 60.8165 37.548C61.0685 40.236 61.4045 41.076 62.4125 42.336C63.5045 43.68 66.4445 44.94 69.8885 43.008C72.1565 41.748 74.5925 41.328 75.5165 41.244C76.6925 41.076 77.7005 41.916 77.8685 43.008C78.0365 44.184 77.1965 45.192 76.1045 45.36C74.9285 45.528 73.2485 45.948 71.9885 46.62C69.9725 47.376 68.1245 47.796 66.3605 47.796Z" fill="#2860B8"/>
<path d="M26.5448 63.504C23.6048 63.504 20.6648 62.832 18.1448 61.404L14.1128 59.136C12.7688 58.38 11.0048 57.96 9.07281 57.96C7.47681 57.96 6.13281 56.616 6.13281 55.02C6.13281 53.424 7.47681 52.08 9.07281 52.08C11.9288 52.08 14.7008 52.752 16.8848 54.012L20.9168 56.28C24.0248 58.044 28.8128 58.044 31.9208 56.28L35.5328 54.264C40.4048 51.576 47.2928 51.576 52.1648 54.264L55.1888 55.944C58.5488 57.792 63.5048 57.624 66.6128 55.692C68.6288 54.096 71.2328 52.92 74.0888 52.248C75.6848 51.912 77.2808 52.92 77.6168 54.516C77.9528 56.112 76.9448 57.708 75.3488 58.044C73.3328 58.464 71.5688 59.304 70.2248 60.396C70.1408 60.48 70.0568 60.48 69.9728 60.564C65.1008 63.84 57.7088 64.008 52.4168 61.152L49.3928 59.472C46.2008 57.708 41.5808 57.708 38.3888 59.472L34.7768 61.488C32.4248 62.832 29.4848 63.504 26.5448 63.504Z" fill="#2860B8"/>
<path d="M26.5448 76.44C23.6048 76.44 20.6648 75.768 18.1448 74.34L14.1128 72.072C12.7688 71.316 11.0048 70.896 9.07281 70.896C7.47681 70.896 6.13281 69.552 6.13281 67.956C6.13281 66.36 7.47681 65.016 9.07281 65.016C11.9288 65.016 14.7008 65.688 16.8848 66.948L20.9168 69.216C24.0248 70.98 28.8128 70.98 31.9208 69.216L35.5328 67.2C40.4048 64.512 47.2928 64.512 52.1648 67.2L55.1888 68.88C58.5488 70.728 63.5048 70.56 66.6128 68.628C68.6288 67.032 71.2328 65.856 74.0888 65.184C75.6848 64.848 77.2808 65.856 77.6168 67.452C77.9528 69.048 76.9448 70.644 75.3488 70.98C73.3328 71.4 71.5688 72.24 70.2248 73.332C70.1408 73.416 70.0568 73.416 69.9728 73.5C65.1008 76.776 57.7088 76.944 52.4168 74.088L49.3928 72.408C46.2008 70.644 41.5808 70.644 38.3888 72.408L34.7768 74.424C32.4248 75.768 29.4848 76.44 26.5448 76.44Z" fill="#2860B8"/>
</svg>
