<svg width="100" height="100" viewBox="0 0 100 100" fill="none" xmlns="http://www.w3.org/2000/svg">
<path d="M30.8064 37.5V64.3321C32.5936 64.964 34.0998 66.2073 35.059 67.8424C36.0181 69.4774 36.3683 71.3989 36.0478 73.2671C35.7272 75.1354 34.7565 76.8303 33.3073 78.0521C31.858 79.2739 30.0234 79.944 28.1278 79.944C26.2322 79.944 24.3977 79.2739 22.9484 78.0521C21.4991 76.8303 20.5284 75.1354 20.2078 73.2671C19.8873 71.3989 20.2375 69.4774 21.1967 67.8424C22.1558 66.2073 23.6621 64.964 25.4492 64.3321V37.5C25.4492 36.7603 26.0489 36.1607 26.7885 36.1607H29.4671C30.2068 36.1607 30.8064 36.7603 30.8064 37.5Z" fill="#66706F"/>
<path fill-rule="evenodd" clip-rule="evenodd" d="M17.7504 87.502C20.8261 89.5427 24.4362 90.6292 28.1273 90.625C31.8185 90.6292 35.4286 89.5427 38.5043 87.502C41.58 85.4613 43.9842 82.5573 45.4151 79.1548C46.8459 75.7522 47.2396 72.0028 46.5466 68.3773C45.8537 64.7518 44.105 61.4118 41.5202 58.7768V29.0179C41.5202 25.4659 40.1092 22.0593 37.5975 19.5477C35.0859 17.036 31.6793 15.625 28.1273 15.625C24.5753 15.625 21.1688 17.036 18.6572 19.5477C16.1455 22.0593 14.7345 25.4659 14.7345 29.0179V58.7768C12.1497 61.4118 10.401 64.7518 9.70805 68.3773C9.0151 72.0028 9.40876 75.7522 10.8396 79.1548C12.2704 82.5573 14.6747 85.4613 17.7504 87.502ZM22.4476 23.3381C23.9541 21.8316 25.9968 20.9843 28.1273 20.9821C30.2579 20.9843 32.3006 21.8316 33.8071 23.3381C35.3136 24.8446 36.1609 26.8873 36.163 29.0179V61.1152L37.0523 61.9161C39.075 63.7239 40.5009 66.1033 41.1415 68.7394C41.782 71.3755 41.607 74.144 40.6394 76.6783C39.6719 79.2127 37.9575 81.3936 35.7232 82.9322C33.489 84.4708 30.8401 85.2946 28.1273 85.2946C25.4145 85.2946 22.7657 84.4708 20.5314 82.9322C18.2971 81.3936 16.5828 79.2127 15.6152 76.6783C14.6477 74.144 14.4726 71.3755 15.1132 68.7394C15.7537 66.1033 17.1797 63.7239 19.2023 61.9161L20.0916 61.1152V29.0179C20.0937 26.8873 20.941 24.8446 22.4476 23.3381Z" fill="#66706F"/>
<path d="M87.4839 44.4741L77.8802 43.5023L78.852 53.0488L71.0205 47.4466L67.1904 56.25L63.2461 47.4466L55.4717 53.1059L56.4435 43.5023L46.897 44.5312L52.4991 36.6997L43.7529 32.8125L52.5563 28.8681L46.897 21.0937L56.5006 22.0655L55.4717 12.5191L63.3032 18.1212L67.1904 9.375L71.1348 18.1784L78.9092 12.5191L77.9374 22.1227L87.4839 21.0937L81.8817 28.9253L90.6279 32.8125L81.8246 36.7569L87.4839 44.4741Z" fill="url(#paint0_radial_3960_103839)"/>
<path d="M54.7851 39.9581C50.8408 33.0983 53.1845 24.4093 60.0443 20.4649C66.9041 16.5206 75.5931 18.8643 79.5374 25.6669C83.4818 32.5267 81.138 41.2157 74.3355 45.2172C67.5329 49.2187 58.7295 46.8178 54.7851 39.9581Z" fill="#FFD348"/>
<path d="M56.7296 38.8149C53.4141 33.0985 55.3577 25.7242 61.1313 22.4087C66.8477 19.0931 74.222 21.0367 77.5375 26.8104C80.8531 32.5268 78.9095 39.9011 73.1359 43.2166C67.3622 46.5322 60.0452 44.5314 56.7296 38.8149Z" fill="url(#paint1_linear_3960_103839)"/>
<defs>
<radialGradient id="paint0_radial_3960_103839" cx="0" cy="0" r="1" gradientUnits="userSpaceOnUse" gradientTransform="translate(67.1904 32.8125) scale(23.4375)">
<stop offset="0.54" stop-color="#D6B849"/>
<stop offset="0.67" stop-color="#FFCE47"/>
<stop offset="1" stop-color="#FFDB73"/>
</radialGradient>
<linearGradient id="paint1_linear_3960_103839" x1="55.1481" y1="20.8081" x2="79.1612" y2="44.8212" gradientUnits="userSpaceOnUse">
<stop stop-color="#FFAF22"/>
<stop offset="1" stop-color="#F09900"/>
</linearGradient>
</defs>
</svg>
