<svg width="100" height="100" viewBox="0 0 100 100" fill="none" xmlns="http://www.w3.org/2000/svg">
<path d="M37.0534 43.3704V63.7266C38.8404 64.3584 40.3465 65.6016 41.3055 67.2364C42.2645 68.8712 42.6147 70.7925 42.2942 72.6605C41.9737 74.5286 41.0031 76.2232 39.554 77.4448C38.1049 78.6665 36.2705 79.3365 34.3752 79.3365C32.4798 79.3365 30.6455 78.6665 29.1964 77.4448C27.7473 76.2232 26.7767 74.5286 26.4562 72.6605C26.1357 70.7925 26.4859 68.8712 27.4449 67.2364C28.4039 65.6016 29.91 64.3584 31.6969 63.7266V43.3704C31.6969 42.5075 32.3965 41.8079 33.2594 41.8079H35.4909C36.3539 41.8079 37.0534 42.5075 37.0534 43.3704Z" fill="#66706F"/>
<path fill-rule="evenodd" clip-rule="evenodd" d="M23.9993 86.8937C27.0747 88.9341 30.6843 90.0205 34.375 90.0163C38.0657 90.0205 41.6753 88.9341 44.7507 86.8937C47.826 84.8532 50.2299 81.9496 51.6606 78.5475C53.0912 75.1454 53.4849 71.3964 52.792 67.7714C52.0991 64.1463 50.3507 60.8068 47.7662 58.1721V28.4168C47.7662 24.8653 46.3553 21.4592 43.844 18.9478C41.3327 16.4365 37.9266 15.0256 34.375 15.0256C30.8234 15.0256 27.4173 16.4365 24.906 18.9478C22.3947 21.4592 20.9838 24.8653 20.9838 28.4168V58.1721C18.3993 60.8068 16.6509 64.1463 15.958 67.7714C15.2651 71.3964 15.6588 75.1454 17.0894 78.5475C18.5201 81.9496 20.924 84.8532 23.9993 86.8937ZM28.6959 22.7378C30.2023 21.2314 32.2447 20.3842 34.375 20.3821C36.5053 20.3842 38.5477 21.2314 40.0541 22.7378C41.5604 24.2441 42.4076 26.2865 42.4097 28.4168V60.5102L43.2989 61.311C45.3213 63.1185 46.7471 65.4977 47.3875 68.1334C48.028 70.7692 47.8529 73.5373 46.8855 76.0714C45.9181 78.6055 44.204 80.786 41.97 82.3244C39.736 83.8628 37.0875 84.6865 34.375 84.6865C31.6625 84.6865 29.014 83.8628 26.78 82.3244C24.546 80.786 22.8319 78.6055 21.8645 76.0714C20.8971 73.5373 20.722 70.7692 21.3625 68.1334C22.0029 65.4977 23.4287 63.1185 25.4511 61.311L26.3403 60.5102V28.4168C26.3424 26.2865 27.1896 24.2441 28.6959 22.7378Z" fill="#66706F"/>
<g clip-path="url(#clip0_3960_103849)">
<path d="M79.8494 27.807L74.0804 28.8243L77.8731 33.4666C78.9153 34.5575 79.0362 36.4482 77.7393 37.5266C76.6484 38.5688 74.9274 38.4473 73.6792 37.3927C73.6429 37.1867 73.6429 37.1867 73.4005 37.017L69.6441 32.5807L67.6315 38.0342C67.0253 39.4158 65.486 40.3245 64.1044 39.7184C62.7229 39.1122 61.8142 37.5729 62.4203 36.1913L64.3966 30.5318L58.6275 31.549C56.9792 31.8397 55.525 30.8214 55.2707 29.3792C55.0164 27.9369 55.9983 26.2766 57.6466 25.986L63.4157 24.9688L59.6592 20.5325C58.5808 19.2355 58.7022 17.5146 59.7931 16.4724C60.884 15.4303 62.811 15.5154 63.6834 16.8487L67.4762 21.491L69.4525 15.8315C70.2284 14.2075 71.804 13.5048 73.3916 14.0747C74.7732 14.6808 75.6819 16.2202 75.0757 17.6017L73.0995 23.2613L78.8685 22.244C80.3108 21.9897 81.971 22.9716 82.2253 24.4139C82.4796 25.8562 81.2917 27.5527 79.8494 27.807Z" fill="#3BBCE1"/>
</g>
<defs>
<clipPath id="clip0_3960_103849">
<rect width="27.1981" height="24.6875" fill="white" transform="translate(53.1281 17.2229) rotate(-10)"/>
</clipPath>
</defs>
</svg>
