<svg width="100" height="100" viewBox="0 0 100 100" fill="none" xmlns="http://www.w3.org/2000/svg">
<path d="M33.9284 52.0046V64.3261C35.7154 64.9579 37.2215 66.2011 38.1805 67.8359C39.1395 69.4707 39.4897 71.3919 39.1692 73.26C38.8487 75.1281 37.8781 76.8227 36.429 78.0443C34.9799 79.266 33.1455 79.936 31.2502 79.936C29.3548 79.936 27.5205 79.266 26.0714 78.0443C24.6223 76.8227 23.6517 75.1281 23.3312 73.26C23.0107 71.3919 23.3609 69.4707 24.3199 67.8359C25.2789 66.2011 26.785 64.9579 28.5719 64.3261V52.0046C28.5719 51.1417 29.2715 50.4421 30.1344 50.4421H32.3659C33.2289 50.4421 33.9284 51.1417 33.9284 52.0046Z" fill="#66706F"/>
<path fill-rule="evenodd" clip-rule="evenodd" d="M20.8743 87.493C23.9497 89.5335 27.5593 90.6198 31.25 90.6157C34.9407 90.6198 38.5503 89.5335 41.6257 87.493C44.701 85.4526 47.1049 82.549 48.5356 79.1469C49.9662 75.7448 50.3599 71.9958 49.667 68.3707C48.9741 64.7457 47.2257 61.4061 44.6412 58.7714V29.0162C44.6412 25.4646 43.2303 22.0585 40.719 19.5472C38.2077 17.0359 34.8016 15.625 31.25 15.625C27.6984 15.625 24.2923 17.0359 21.781 19.5472C19.2697 22.0585 17.8588 25.4646 17.8588 29.0162V58.7714C15.2743 61.4061 13.5259 64.7457 12.833 68.3707C12.1401 71.9958 12.5338 75.7448 13.9644 79.1469C15.3951 82.549 17.799 85.4526 20.8743 87.493ZM25.5709 23.3371C27.0773 21.8308 29.1197 20.9836 31.25 20.9815C33.3803 20.9836 35.4227 21.8308 36.9291 23.3371C38.4354 24.8435 39.2826 26.8859 39.2847 29.0162V61.1095L40.1739 61.9103C42.1963 63.7179 43.6221 66.097 44.2625 68.7328C44.903 71.3686 44.7279 74.1367 43.7605 76.6708C42.7931 79.2048 41.079 81.3854 38.845 82.9238C36.611 84.4622 33.9625 85.2859 31.25 85.2859C28.5375 85.2859 25.889 84.4622 23.655 82.9238C21.421 81.3854 19.7069 79.2048 18.7395 76.6708C17.7721 74.1367 17.597 71.3686 18.2375 68.7328C18.8779 66.097 20.3037 63.7179 22.3261 61.9103L23.2153 61.1095V29.0162C23.2174 26.8859 24.0646 24.8435 25.5709 23.3371Z" fill="#66706F"/>
<path d="M69.8107 29.9519L67.1184 25.1442H72.5031C73.8492 25.1442 75.1954 23.7981 75.1954 22.4519C75.1954 21.1058 73.8492 19.9519 72.5031 19.9519H67.1184L69.8107 15.1442C70.58 13.9904 70.0031 12.4519 68.8492 11.6827C67.5031 10.9135 65.9646 11.2981 65.0031 12.6442L62.3107 17.4519L59.6184 12.6442C59.0415 11.2981 57.3107 10.9135 56.1569 11.6827C55.0031 12.4519 54.6184 13.9904 55.3877 15.3365L58.08 19.9519H52.6954C51.1569 19.9519 50.0031 21.2981 50.0031 22.6442C50.0031 23.9904 51.1569 25.1442 52.6954 25.1442H58.08L55.3877 29.9519C54.6184 31.1058 55.1954 32.6442 56.3492 33.4135C57.5031 34.1827 59.0415 33.6058 59.8107 32.4519L62.5031 27.8365L65.1954 32.4519C65.3059 32.5625 65.3529 32.6095 65.3729 32.6661C65.3877 32.7078 65.3877 32.7548 65.3877 32.8365C66.3492 33.9904 67.8877 34.375 69.0415 33.6058C70.3877 32.8365 70.58 31.1058 69.8107 29.9519Z" fill="#3BBCE1"/>
<path d="M83.6407 58.0726L88.7006 56.2309C89.9655 55.7705 90.7701 54.0451 90.3097 52.7802C89.8493 51.5152 88.1897 50.8914 86.9247 51.3518L81.8648 53.1934L82.7504 47.7548C83.0786 46.4075 82.0103 45.1591 80.663 44.8309C79.1349 44.5685 77.8208 45.4561 77.3776 47.0499L76.492 52.4885L72.3177 48.8916C71.3152 47.8239 69.5573 48.0545 68.7361 49.1719C67.9149 50.2894 68.0797 51.8667 69.2629 52.8685L73.3714 56.2848L68.3115 58.1264C66.8659 58.6526 66.242 60.3122 66.7024 61.5772C67.1628 62.8421 68.6417 63.5318 70.0874 63.0056L75.1473 61.1639L74.2617 66.6025C73.9335 67.9499 75.0018 69.1982 76.3492 69.5264C77.6965 69.8546 78.9449 68.7863 79.2731 67.4389L80.2245 62.1811L84.333 65.5973C84.5794 65.7122 84.5794 65.7122 84.6452 65.893C85.9434 66.6483 87.5206 66.4836 88.3418 65.3661C89.3437 64.1828 88.9324 62.4907 87.8149 61.6695L83.6407 58.0726Z" fill="#3BBCE1"/>
</svg>
