<svg width="100" height="100" viewBox="0 0 100 100" fill="none" xmlns="http://www.w3.org/2000/svg">
<path fill-rule="evenodd" clip-rule="evenodd" d="M14.6254 84.3769C17.7011 86.4176 21.3112 87.5041 25.0023 87.5C28.6935 87.5041 32.3036 86.4176 35.3793 84.3769C38.455 82.3362 40.8592 79.4323 42.2901 76.0298C43.7209 72.6272 44.1146 68.8778 43.4216 65.2523C42.7287 61.6268 40.98 58.2868 38.3952 55.6518V25.8929C38.3952 22.3408 36.9842 18.9343 34.4725 16.4227C31.9609 13.911 28.5543 12.5 25.0023 12.5C21.4503 12.5 18.0438 13.911 15.5321 16.4227C13.0205 18.9343 11.6095 22.3408 11.6095 25.8929V55.6518C9.02467 58.2868 7.276 61.6268 6.58305 65.2523C5.8901 68.8778 6.28376 72.6272 7.7146 76.0298C9.14544 79.4323 11.5497 82.3362 14.6254 84.3769ZM19.3226 20.2131C20.8291 18.7066 22.8718 17.8593 25.0023 17.8571C27.1329 17.8593 29.1756 18.7066 30.6821 20.2131C32.1886 21.7196 33.0359 23.7623 33.038 25.8929V57.9902L33.9273 58.7911C35.95 60.5989 37.3759 62.9783 38.0165 65.6144C38.657 68.2505 38.482 71.0189 37.5144 73.5533C36.5469 76.0877 34.8325 78.2685 32.5982 79.8071C30.364 81.3457 27.7151 82.1696 25.0023 82.1696C22.2895 82.1696 19.6407 81.3457 17.4064 79.8071C15.1721 78.2685 13.4578 76.0877 12.4902 73.5533C11.5227 71.0189 11.3476 68.2505 11.9882 65.6144C12.6287 62.9783 14.0547 60.5989 16.0773 58.7911L16.9666 57.9902V25.8929C16.9687 23.7623 17.816 21.7196 19.3226 20.2131ZM27.6813 56.9195V61.207C29.4684 61.8389 30.9747 63.0822 31.9338 64.7172C32.893 66.3523 33.2432 68.2737 32.9227 70.142C32.6021 72.0103 31.6314 73.7051 30.1821 74.9269C28.7328 76.1488 26.8983 76.8189 25.0027 76.8189C23.1071 76.8189 21.2725 76.1488 19.8232 74.9269C18.374 73.7051 17.4033 72.0103 17.0827 70.142C16.7622 68.2737 17.1124 66.3523 18.0715 64.7172C19.0307 63.0822 20.5369 61.8389 22.3241 61.207V56.9195C22.3241 56.0566 23.0237 55.357 23.8866 55.357H26.1188C26.9817 55.357 27.6813 56.0566 27.6813 56.9195Z" fill="#66706F"/>
<path d="M60.8684 22.0192L63.5607 26.8269C64.33 27.9808 64.1377 29.7115 62.7915 30.4808C61.6377 31.25 60.0992 30.8654 59.1377 29.7115C59.1377 29.6298 59.1377 29.5828 59.1229 29.5411C59.1029 29.4845 59.0559 29.4375 58.9454 29.3269L56.2531 24.7115L53.5607 29.3269C52.7915 30.4808 51.2531 31.0577 50.0992 30.2885C48.9454 29.5192 48.3684 27.9808 49.1377 26.8269L51.83 22.0192H46.4454C44.9069 22.0192 43.7531 20.8654 43.7531 19.5192C43.7531 18.1731 44.9069 16.8269 46.4454 16.8269H51.83L49.1377 12.2115C48.3684 10.8654 48.7531 9.32693 49.9069 8.5577C51.0607 7.78847 52.7915 8.17309 53.3684 9.51924L56.0607 14.3269L58.7531 9.51924C59.7146 8.17309 61.2531 7.78847 62.5992 8.5577C63.7531 9.32693 64.33 10.8654 63.5607 12.0192L60.8684 16.8269H66.2531C67.5992 16.8269 68.9454 17.9808 68.9454 19.3269C68.9454 20.6731 67.5992 22.0192 66.2531 22.0192H60.8684Z" fill="#3BBCE1"/>
<path d="M91.826 43.7309L86.7661 45.5726L90.9404 49.1695C92.0579 49.9907 92.4691 51.6829 91.4673 52.8661C90.6461 53.9836 89.0689 54.1483 87.7707 53.393C87.7427 53.3162 87.7267 53.272 87.6985 53.2378C87.6604 53.1915 87.6002 53.1634 87.4584 53.0973L83.3499 49.6811L82.3985 54.939C82.0703 56.2863 80.822 57.3546 79.4746 57.0264C78.1273 56.6982 77.059 55.4499 77.3872 54.1025L78.2728 48.6639L73.2129 50.5056C71.7672 51.0318 70.2883 50.3421 69.8279 49.0772C69.3675 47.8122 69.9913 46.1526 71.437 45.6264L76.4969 43.7848L72.3884 40.3685C71.2051 39.3667 71.0404 37.7894 71.8616 36.6719C72.6827 35.5545 74.4407 35.3239 75.4432 36.3916L79.6175 39.9885L80.5031 34.5499C80.9462 32.9561 82.2604 32.0685 83.7884 32.3309C85.1358 32.6591 86.2041 33.9075 85.8759 35.2548L84.9903 40.6934L90.0502 38.8518C91.3151 38.3914 92.9747 39.0152 93.4351 40.2802C93.8956 41.5451 93.091 43.2705 91.826 43.7309Z" fill="#3BBCE1"/>
<path d="M68.365 72.0306L72.4899 68.5695C73.5211 67.7042 73.687 65.8077 72.8217 64.7765C71.9564 63.7453 70.1835 63.7267 69.1523 64.5919L65.0275 68.0531L63.9996 62.6396C63.8472 61.2613 62.4163 60.4536 61.038 60.606C59.5123 60.882 58.581 62.1656 58.7097 63.8148L59.7376 69.2283L54.5848 67.276C53.2776 66.6156 51.7045 67.4335 51.3151 68.7645C50.9256 70.0954 51.6199 71.5212 53.0745 72.0579L58.1036 73.8629L53.9788 77.3241C52.8002 78.313 52.7816 80.0859 53.6469 81.1171C54.5122 82.1483 56.1378 82.2905 57.3163 81.3016L61.4412 77.8405L62.4691 83.2539C62.6215 84.6323 64.0523 85.44 65.4307 85.2876C66.809 85.1352 67.6167 83.7043 67.4643 82.326L66.56 77.0598L71.5892 78.8648C71.745 78.8784 71.8112 78.8842 71.8628 78.9147C71.901 78.9372 71.9312 78.9732 71.9837 79.0358C73.462 79.3017 74.8877 78.6074 75.2772 77.2764C75.8139 75.8219 74.8487 74.3724 73.5178 73.983L68.365 72.0306Z" fill="#3BBCE1"/>
</svg>
