<svg id="Layer_1" data-name="Layer 1" xmlns="http://www.w3.org/2000/svg" viewBox="0 0 100 100">
  <defs>
    <style>
      .cls-1 {
        fill: #ffdd15;
      }

      .cls-2 {
        fill: #999;
      }

      .cls-3 {
        fill: #0062bf;
      }
    </style>
  </defs>
  <title>ฝนฟ้าคะนองหนัก</title>
  <g id="s10">
    <g id="cloud">
      <polygon class="cls-1" points="45.2 78.99 49.79 61.5 42.71 58.48 53.26 38.99 50.45 54.38 57.31 57.41 45.2 78.99"/>
      <path class="cls-2" d="M81.25,41.9h0A23.92,23.92,0,0,0,36.36,35a9.9,9.9,0,0,0-12.78,5.6,16.34,16.34,0,0,0-1.71-.1A14.86,14.86,0,0,0,11.19,45,14.62,14.62,0,0,0,7,55.15v.21A14.82,14.82,0,0,0,21.87,70H42.38l1.48-5.63-3.11-1.33a5.05,5.05,0,0,1-2.44-7L48.86,36.61a5,5,0,0,1,9.32,3.28L56.08,51.4l3.25,1.44a5,5,0,0,1,2.54,6.6c-.06.13-.13.27-.2.4L56,70H77.58A14.3,14.3,0,0,0,81.25,41.9Z"/>
    </g>
    <g>
      <g id="raindrop-4">
        <path class="cls-3" d="M24.5,94.07l4.85-10.92a2.5,2.5,0,0,0-4.57-2L19.93,92.07a2.49,2.49,0,0,0,4.57,2Z"/>
      </g>
      <g id="raindrop-4-2" data-name="raindrop-4">
        <path class="cls-3" d="M40.5,94.07l4.85-10.92a2.5,2.5,0,0,0-4.57-2L35.93,92.07a2.49,2.49,0,0,0,4.57,2Z"/>
      </g>
      <g id="raindrop-4-3" data-name="raindrop-4">
        <path class="cls-3" d="M56.5,94.07l4.85-10.92a2.5,2.5,0,0,0-4.57-2L51.93,92.07a2.49,2.49,0,0,0,4.57,2Z"/>
      </g>
      <g id="raindrop-4-4" data-name="raindrop-4">
        <path class="cls-3" d="M71.69,94.07l4.86-10.92a2.5,2.5,0,0,0-4.57-2L67.12,92.07a2.49,2.49,0,0,0,4.57,2Z"/>
      </g>
    </g>
  </g>
</svg>
